<svg width="192" height="192" viewBox="0 0 192 192" fill="none" xmlns="http://www.w3.org/2000/svg">
<rect width="192" height="192" fill="black"/>
<path d="M28.8 118H20.096V80.624L14.528 78.576V72.368H22.08C24.896 72.368 26.7093 72.88 27.52 73.904C28.3733 74.928 28.8 76.9547 28.8 79.984V118ZM69.7265 93.936V96.56C69.7265 99.7173 69.6198 102.363 69.4065 104.496C69.1932 106.629 68.7665 108.635 68.1265 110.512C67.4865 112.389 66.5905 113.883 65.4385 114.992C64.2865 116.059 62.7718 116.891 60.8945 117.488C59.0598 118.085 56.8198 118.384 54.1745 118.384C51.5292 118.384 49.2678 118.085 47.3905 117.488C45.5558 116.848 44.0625 115.995 42.9105 114.928C41.7585 113.861 40.8625 112.389 40.2225 110.512C39.5825 108.592 39.1558 106.565 38.9425 104.432C38.7292 102.299 38.6225 99.632 38.6225 96.432V94C38.6225 87.4293 39.1345 82.5867 40.1585 79.472C40.7985 77.5947 41.6945 76.144 42.8465 75.12C45.2785 73.072 49.0545 72.048 54.1745 72.048C60.1478 72.048 64.2225 73.6693 66.3985 76.912C68.6172 80.1547 69.7265 85.8293 69.7265 93.936ZM61.1505 98.544V91.44C61.1078 87.216 60.6385 84.2507 59.7425 82.544C58.8465 80.8373 56.9905 79.984 54.1745 79.984C51.3585 79.984 49.5025 80.8373 48.6065 82.544C47.7105 84.208 47.2412 87.088 47.1985 91.184V98.544C47.2412 103.109 47.6892 106.245 48.5425 107.952C49.3958 109.616 51.2945 110.448 54.2385 110.448C57.1825 110.448 59.0598 109.637 59.8705 108.016C60.6812 106.395 61.1078 103.237 61.1505 98.544ZM93.175 118H84.471V80.624L78.903 78.576V72.368H86.455C89.271 72.368 91.0843 72.88 91.895 73.904C92.7483 74.928 93.175 76.9547 93.175 79.984V118ZM113.878 109.424C114.56 110.064 114.902 111.451 114.902 113.584C114.902 115.717 114.56 117.125 113.878 117.808C113.238 118.491 111.851 118.832 109.718 118.832C107.584 118.832 106.176 118.491 105.494 117.808C104.811 117.125 104.47 115.717 104.47 113.584C104.47 111.451 104.811 110.064 105.494 109.424C106.176 108.741 107.584 108.4 109.718 108.4C111.851 108.4 113.238 108.741 113.878 109.424ZM142.673 104.624L150.225 104.56C150.182 104.901 150.139 105.52 150.097 106.416C150.054 107.312 150.011 107.931 149.969 108.272C149.969 108.571 149.926 109.061 149.841 109.744C149.755 110.427 149.649 110.939 149.521 111.28C149.435 111.579 149.307 111.984 149.137 112.496C148.369 114.715 146.278 116.464 142.865 117.744C140.689 118.512 138.406 118.896 136.017 118.896C133.67 118.896 131.537 118.512 129.617 117.744C127.697 116.976 126.182 115.995 125.073 114.8C122.555 112.155 121.297 107.205 121.297 99.952C121.297 92.656 122.555 87.6853 125.073 85.04C126.182 83.8453 127.697 82.864 129.617 82.096C131.537 81.328 133.67 80.944 136.017 80.944C140.625 80.944 144.123 82.096 146.513 84.4C148.902 86.704 150.097 89.904 150.097 94H142.545C142.545 92.1227 142.075 90.736 141.137 89.84C140.198 88.9013 138.449 88.432 135.889 88.432C133.371 88.432 131.686 89.2213 130.833 90.8C130.022 92.3787 129.617 94.7467 129.617 97.904V101.232C129.617 106.309 130.598 109.424 132.561 110.576C133.457 111.131 134.63 111.408 136.081 111.408C137.531 111.408 138.705 111.28 139.601 111.024C140.539 110.725 141.201 110.235 141.585 109.552C142.011 108.869 142.289 108.208 142.417 107.568C142.545 106.885 142.63 105.904 142.673 104.624ZM183.86 81.456L169.972 122.096C169.332 123.931 168.5 125.36 167.476 126.384C165.769 128.091 163.38 128.944 160.308 128.944H156.404V121.456H158.964C160.159 121.456 161.033 121.243 161.588 120.816C162.185 120.432 162.697 119.643 163.124 118.448L163.764 116.656L152.756 81.456H161.524L168.052 106.864L175.092 81.456H183.86Z" fill="#EEE3C1"/>
</svg>
